<?xml version="1.0" encoding="UTF-8" standalone="no"?>
<svg
   width="3178.8982"
   height="1610.6935"
   viewBox="0 0 3178.8982 1610.6935"
   version="1.1"
   id="svg5"
   xml:space="preserve"
   xmlns:xlink="http://www.w3.org/1999/xlink"
   xmlns="http://www.w3.org/2000/svg"
   xmlns:svg="http://www.w3.org/2000/svg"
   xmlns:rdf="http://www.w3.org/1999/02/22-rdf-syntax-ns#"
   xmlns:cc="http://creativecommons.org/ns#"
   xmlns:dc="http://purl.org/dc/elements/1.1/"><metadata
     id="metadata132"><rdf:RDF><cc:Work
         rdf:about=""><dc:format>image/svg+xml</dc:format><dc:type
           rdf:resource="http://purl.org/dc/dcmitype/StillImage" /></cc:Work></rdf:RDF></metadata><defs
     id="defs2"><linearGradient
       id="linearGradient44435"><stop
         style="stop-color:#000000;stop-opacity:0;"
         offset="0"
         id="stop44431" /><stop
         style="stop-color:#000000;stop-opacity:1;"
         offset="0.4969475"
         id="stop44439" /><stop
         style="stop-color:#000000;stop-opacity:0;"
         offset="1"
         id="stop44433" /></linearGradient><linearGradient
       id="linearGradient32596"><stop
         style="stop-color:#9c3bee;stop-opacity:1;"
         offset="0"
         id="stop32592" /><stop
         style="stop-color:#5d2ee4;stop-opacity:1"
         offset="1"
         id="stop32594" /></linearGradient><rect
       x="8077.9878"
       y="22.627417"
       width="48.08326"
       height="50.91169"
       id="rect27108" /><rect
       x="5839.333"
       y="-1000.0002"
       width="883.83838"
       height="332.49133"
       id="rect27052" /><linearGradient
       id="linearGradient21453"><stop
         style="stop-color:#c643f5;stop-opacity:1"
         offset="0"
         id="stop21449" /><stop
         style="stop-color:#5d2ee4;stop-opacity:1"
         offset="1"
         id="stop21451" /></linearGradient><rect
       x="5839.333"
       y="-1000.0002"
       width="883.83838"
       height="332.49133"
       id="rect27680" /><rect
       x="5839.333"
       y="-1000.0002"
       width="883.83838"
       height="332.49133"
       id="rect28031" /><rect
       x="5839.333"
       y="-1000.0002"
       width="883.83838"
       height="332.49133"
       id="rect32459" /><rect
       x="5839.333"
       y="-1000.0002"
       width="883.83838"
       height="332.49133"
       id="rect32461" /><rect
       x="5839.333"
       y="-1000.0002"
       width="883.83838"
       height="332.49133"
       id="rect45652" /><rect
       x="5839.333"
       y="-1000.0002"
       width="883.83838"
       height="332.49133"
       id="rect45654" /><rect
       x="5839.333"
       y="-1000.0002"
       width="883.83838"
       height="332.49133"
       id="rect46196" /><linearGradient
       xlink:href="#linearGradient21453"
       id="linearGradient46198"
       gradientUnits="userSpaceOnUse"
       x1="5842.9185"
       y1="-975.18225"
       x2="5928.9805"
       y2="-860.07373" /><rect
       x="5839.333"
       y="-1000.0002"
       width="883.83838"
       height="332.49133"
       id="rect46204" /><linearGradient
       xlink:href="#linearGradient32596"
       id="linearGradient614"
       gradientUnits="userSpaceOnUse"
       x1="4746.6855"
       y1="1234.2534"
       x2="5687.1772"
       y2="1235.6194"
       gradientTransform="matrix(0.625,0,0,0.625,4906.2682,1755.4894)" /><linearGradient
       xlink:href="#linearGradient32596"
       id="linearGradient618"
       gradientUnits="userSpaceOnUse"
       x1="4950.8047"
       y1="1236.9747"
       x2="5687.0391"
       y2="1233.0206"
       gradientTransform="matrix(0.625,0,0,0.625,4906.2682,1755.4894)" /><linearGradient
       xlink:href="#linearGradient44435"
       id="linearGradient616"
       gradientUnits="userSpaceOnUse"
       x1="5283.6445"
       y1="1236.9747"
       x2="5425.0664"
       y2="1378.3945"
       gradientTransform="matrix(0.78043444,-0.15543446,-0.15543446,0.78043444,4299.2583,2362.4993)" /><rect
       x="5839.333"
       y="-1000.0002"
       width="883.83838"
       height="332.49133"
       id="rect947" /><rect
       x="5839.333"
       y="-1000.0002"
       width="883.83838"
       height="332.49133"
       id="rect949" /><linearGradient
       xlink:href="#linearGradient32596"
       id="linearGradient974"
       gradientUnits="userSpaceOnUse"
       gradientTransform="translate(-26.422488,27.5109)"
       x1="4746.6855"
       y1="1234.2534"
       x2="5687.1772"
       y2="1235.6194" /><linearGradient
       xlink:href="#linearGradient44435"
       id="linearGradient976"
       gradientUnits="userSpaceOnUse"
       gradientTransform="matrix(1.2486951,-0.24869513,-0.24869513,1.2486951,-997.63832,998.7267)"
       x1="5283.6445"
       y1="1236.9747"
       x2="5425.0664"
       y2="1378.3945" /><linearGradient
       xlink:href="#linearGradient32596"
       id="linearGradient978"
       gradientUnits="userSpaceOnUse"
       gradientTransform="translate(-26.422488,27.5109)"
       x1="4950.8047"
       y1="1236.9747"
       x2="5687.0391"
       y2="1233.0206" /><rect
       x="5839.333"
       y="-1000.0002"
       width="883.83838"
       height="332.49133"
       id="rect27052-6" /><rect
       x="5839.333"
       y="-1000.0002"
       width="883.83838"
       height="332.49133"
       id="rect27680-6" /><linearGradient
       xlink:href="#linearGradient21453"
       id="linearGradient670"
       gradientUnits="userSpaceOnUse"
       x1="5842.9185"
       y1="-975.18225"
       x2="5928.9805"
       y2="-860.07373"
       gradientTransform="matrix(1.9913417,0,0,1.9913417,-1864.5385,4334.3368)" /></defs><g
     id="layer1"
     transform="translate(-7415.6141,-1723.2529)"><g
       id="g972"
       transform="matrix(3.0723204,0,0,3.0723204,-11510.222,-9549.4433)"
       style="opacity:0.15"><g
         id="g970"
         transform="translate(1534.0298,2666.7585)"><path
           id="path964"
           style="color:#000000;fill:url(#linearGradient974);fill-opacity:1;stroke-linecap:round;stroke-linejoin:round"
           d="m 5151.1563,1229.1299 a 50.005,50.005 0 0 0 0,70.7106 l 212.132,212.1321 a 50.005,50.005 0 0 0 70.7107,0 l 212.1298,-212.1299 a 50.005,50.005 0 0 0 0,-70.7106 L 5433.9968,1017 a 50.005,50.005 0 0 0 -35.3531,-14.6437 50.005,50.005 0 0 0 -35.3554,14.6415 z m 141.4037,0.018 70.746,-70.746 a 50.005,50.005 0 0 1 70.6908,0.015 l 35.3575,35.3575 35.3576,35.3576 a 50.005,50.005 0 0 1 0.015,70.6908 l -70.746,70.746 a 50.005,50.005 0 0 1 -70.6907,-0.015 l -35.3576,-35.3576 -35.3576,-35.3575 a 50.005,50.005 0 0 1 -0.015,-70.6909 z" /><path
           id="path966"
           style="fill:url(#linearGradient976);fill-opacity:1;stroke:none;stroke-width:2.44736px;stroke-linecap:butt;stroke-linejoin:miter;stroke-opacity:1"
           d="m 5186.5116,1335.1959 141.4214,141.4214 105.8804,-105.8804 -0.027,-0.027 a 50.005,50.005 0 0 1 -70.4963,-0.1569 l -35.3576,-35.3576 -35.3575,-35.3575 a 50.005,50.005 0 0 1 -0.1569,-70.4963 l -0.026,-0.026 z" /><path
           id="path968"
           style="color:#000000;fill:url(#linearGradient978);fill-opacity:1;stroke-linecap:round;stroke-linejoin:round"
           d="m 4939.0243,1229.1299 c -19.5233,19.5275 -19.5234,51.1833 -1e-4,70.7106 l 212.1321,212.1321 c 19.5254,19.5254 51.1833,19.5234 70.7107,0 l 212.132,-212.1321 c 19.5262,-19.5261 19.5262,-51.1844 0,-70.7106 -19.527,-19.527 -51.1858,-19.5293 -70.7129,0 l -106.066,106.066 -35.3553,35.3553 a 50.005,50.005 0 0 1 -70.7107,0 l -24.6051,-24.6051 -22.76,-22.76 -23.3434,-23.3434 c -19.5253,-19.5253 -19.5234,-51.1832 0,-70.7106 l 15.9983,-15.9983 125.4209,-125.4209 c 19.5261,-19.5261 19.5262,-51.1845 0,-70.7107 -9.3766,-9.3773 -22.0944,-14.6455 -35.3554,-14.6459 -13.261,4e-4 -25.9787,5.2688 -35.3553,14.6459 z" /></g></g><g
       id="g1130"><path
         id="path552"
         style="color:#000000;fill:url(#linearGradient614);fill-opacity:1;stroke-width:0.625;stroke-linecap:round;stroke-linejoin:round"
         d="m 8142.255,2506.5013 a 31.253125,31.253125 0 0 0 0,44.1941 l 132.5825,132.5826 a 31.253125,31.253125 0 0 0 44.1942,0 l 132.5811,-132.5812 a 31.253125,31.253125 0 0 0 0,-44.1941 l -132.5825,-132.5826 a 31.253125,31.253125 0 0 0 -22.0957,-9.1523 31.253125,31.253125 0 0 0 -22.0971,9.1509 z m 88.3773,0.011 44.2162,-44.2162 a 31.253125,31.253125 0 0 1 44.1818,0.01 l 22.0984,22.0984 22.0985,22.0985 a 31.253125,31.253125 0 0 1 0.01,44.1818 l -44.2162,44.2162 a 31.253125,31.253125 0 0 1 -44.1817,-0.01 l -22.0985,-22.0985 -22.0985,-22.0984 a 31.253125,31.253125 0 0 1 -0.01,-44.1818 z" /><path
         id="path554"
         style="fill:url(#linearGradient616);fill-opacity:1;stroke:none;stroke-width:1.5296px;stroke-linecap:butt;stroke-linejoin:miter;stroke-opacity:1"
         d="m 8164.352,2572.7925 88.3884,88.3884 66.1753,-66.1752 -0.017,-0.017 a 31.253125,31.253125 0 0 1 -44.0602,-0.098 l -22.0985,-22.0985 -22.0984,-22.0984 a 31.253125,31.253125 0 0 1 -0.098,-44.0602 l -0.016,-0.016 z" /><path
         id="path556"
         style="color:#000000;fill:url(#linearGradient618);fill-opacity:1;stroke-width:0.625;stroke-linecap:round;stroke-linejoin:round"
         d="m 8009.6725,2506.5013 c -12.2021,12.2047 -12.2021,31.9896 -10e-5,44.1941 l 132.5826,132.5826 c 12.2034,12.2034 31.9895,12.2021 44.1942,0 l 132.5825,-132.5826 c 12.2038,-12.2038 12.2038,-31.9902 0,-44.1941 -12.2044,-12.2044 -31.9912,-12.2058 -44.1956,0 l -66.2912,66.2912 -22.0971,22.0971 a 31.253125,31.253125 0 0 1 -44.1942,0 l -15.3782,-15.3782 -14.225,-14.225 -14.5896,-14.5896 c -12.2033,-12.2033 -12.2021,-31.9895 0,-44.1941 l 9.9989,-9.999 78.3881,-78.388 c 12.2038,-12.2038 12.2039,-31.9904 0,-44.1942 -5.8604,-5.8608 -13.809,-9.1535 -22.0971,-9.1537 -8.2882,2e-4 -16.2367,3.293 -22.0971,9.1537 z" /></g><path
       id="path636"
       style="font-size:144px;line-height:1.25;font-family:'Averta Std PE';-inkscape-font-specification:'Averta Std PE';white-space:pre;fill:#000000;stroke-width:1"
       d="m 9018.0078,2394.6855 v 96.3497 h -0.2871 c -10.6098,-16.9184 -28.6748,-26.668 -49.8945,-26.668 -39.2852,0 -68.2481,31.2565 -68.2481,72.5488 0,42.4395 29.8236,70.541 68.5352,70.541 22.6535,0 40.4323,-10.6108 50.4687,-27.5293 h 0.2871 v 25.8086 h 22.3653 v -211.0508 z m 561.75,0 v 211.0508 h 23.2266 v -211.0508 z m -928.793,69.6817 c -41.5791,0 -70.5429,29.5348 -70.5429,71.6875 0,42.4394 28.9628,71.4023 69.6816,71.4023 27.2416,0 45.8798,-10.3241 57.6367,-24.375 l -16.0566,-14.623 c -8.6025,10.6099 -23.2278,17.7773 -39.8594,17.7773 -28.3886,0 -47.6015,-20.3593 -47.6015,-50.1816 0,-29.5356 19.2134,-50.4688 47.8886,-50.4688 16.6317,0 30.3958,7.4562 39.2852,17.7793 l 15.7715,-14.0507 c -13.7641,-16.3449 -35.2702,-24.9473 -56.2032,-24.9473 z m 151.1172,0 c -43.2996,0 -72.2617,31.542 -72.2617,71.6875 0,40.1453 28.9621,71.4023 72.2617,71.4023 41.2925,0 71.9766,-28.9629 71.9766,-71.4023 0,-42.4395 -30.6841,-71.6875 -71.9766,-71.6875 z m 342.3848,0 c -39.8587,0 -68.8203,29.5348 -68.8203,71.6875 0,42.7261 29.2485,71.4023 70.541,71.4023 28.1018,0 45.593,-10.611 57.6367,-26.0957 l -16.3437,-13.7636 c -8.6026,10.6098 -21.7946,18.6386 -40.4336,18.6386 -26.3813,0 -44.7325,-17.2043 -47.8867,-43.2988 h 108.9648 c 0,-1.7206 0.5742,-5.7351 0.5742,-9.4629 0,-39.8587 -26.0943,-69.1074 -64.2324,-69.1074 z m 161.7285,0 c -43.2997,0 -72.2617,31.542 -72.2617,71.6875 0,40.1453 28.962,71.4023 72.2617,71.4023 41.2924,0 71.9746,-28.9629 71.9746,-71.4023 0,-42.4395 -30.6822,-71.6875 -71.9746,-71.6875 z m 180.9414,0 c -21.5065,0 -39.8593,10.0366 -50.7558,26.9551 h -0.2852 v -25.2344 h -23.2285 v 139.6484 h 23.2285 v -69.6816 c 0,-31.5429 17.2047,-50.4688 43.5859,-50.4688 20.3594,0 34.4102,11.1832 34.4102,43.8731 v 76.2773 h 23.2266 v -82.8711 c 0,-39.8586 -20.0726,-58.498 -50.1817,-58.498 z m 143.0899,1.7207 59.3574,134.1992 -24.9473,62.2266 h 24.0879 l 79.1445,-196.4258 h -24.375 l -42.1523,106.0976 h -0.5742 l -45.3067,-106.0976 z m -828.1446,19.498 c 26.9548,0 48.1758,20.6464 48.1758,50.4688 0,29.8223 -21.5077,50.1816 -48.1758,50.1816 -28.9619,0 -48.4609,-22.3666 -48.4609,-50.1816 0,-27.8151 19.2122,-50.4688 48.4609,-50.4688 z m 169.4727,0 c 28.1018,0 47.3144,22.6548 47.3144,51.3301 0,29.5356 -21.2202,49.3203 -47.6015,49.3203 -28.3885,0 -47.8887,-21.2184 -47.8887,-49.3203 0,-30.9693 21.5077,-51.3301 48.1758,-51.3301 z m 172.625,0 c 22.9403,0 37.8519,15.4856 41.293,38.4258 h -85.7403 c 4.3013,-23.8005 22.0806,-38.4258 44.4473,-38.4258 z m 162.0156,0 c 26.9548,0 48.1738,20.6464 48.1738,50.4688 0,29.8223 -21.5058,50.1816 -48.1738,50.1816 -28.9621,0 -48.4609,-22.3666 -48.4609,-50.1816 0,-27.8151 19.212,-50.4688 48.4609,-50.4688 z" /><path
       id="path629"
       style="font-size:144px;line-height:1.25;font-family:'Averta Std PE';-inkscape-font-specification:'Averta Std PE';white-space:pre;fill:url(#linearGradient670);stroke-width:1"
       d="m 9863.9297,2407.3027 c -9.4628,0 -16.918,7.4568 -16.918,16.6328 0,9.1761 7.4552,16.6309 16.918,16.6309 9.4629,0 16.9199,-7.4548 16.9199,-16.6309 0,-9.176 -7.457,-16.6328 -16.9199,-16.6328 z m 92.9101,57.0645 c -26.3812,0 -45.8808,16.0581 -45.8808,37.5644 0,25.5211 19.2117,34.6975 41.8652,42.7266 20.3595,7.4556 33.2637,10.8962 33.2637,23.2266 0,10.6099 -9.7495,18.9257 -26.668,18.9257 -19.4992,0 -31.83,-6.3081 -42.7265,-16.9179 l -11.7579,17.7773 c 13.4774,11.7568 31.2574,19.7871 54.4844,19.7871 33.5502,0 50.1821,-18.0661 50.1821,-39.8593 0.287,-27.2415 -19.2129,-32.403 -48.7485,-43.8731 -15.1979,-5.4483 -26.3808,-10.8963 -26.3808,-21.793 0,-10.6097 10.6092,-16.9179 21.5058,-16.9179 12.0436,0 24.9485,3.7267 36.9922,14.9101 l 12.0433,-18.3515 c -15.4846,-12.6172 -31.2558,-17.2051 -48.1742,-17.2051 z m -104.3789,1.7207 v 154.2734 c 0,16.0582 -6.3097,22.9395 -16.6328,22.9395 -4.588,0 -11.1835,-1.4333 -15.7715,-4.3008 l -3.7265,20.6465 c 8.8894,3.7278 15.77,4.5879 24.0859,4.5879 22.08,0 35.2715,-16.6315 35.2715,-43.8731 v -154.2734 z m -55.0566,107.8183 c -9.4629,0 -17.2051,7.4552 -17.2051,16.918 0,9.4629 7.7422,16.9199 17.2051,16.9199 9.4628,0 16.918,-7.457 16.918,-16.9199 0,-9.4628 -7.4552,-16.9179 -16.918,-16.918 z" /></g></svg>
