<?xml version="1.0" encoding="UTF-8" standalone="no"?>
<!-- Created with Inkscape (http://www.inkscape.org/) -->

<svg
   width="338.66666mm"
   height="2.6458335mm"
   viewBox="0 0 338.66666 2.6458335"
   version="1.1"
   id="svg5"
   xmlns="http://www.w3.org/2000/svg"
   xmlns:svg="http://www.w3.org/2000/svg">
  <defs
     id="defs2" />
  <g
     id="layer1">
    <path
       id="path3318"
       style="fill:#ff0000;stroke:none;stroke-width:0.264583px;stroke-linecap:butt;stroke-linejoin:miter;stroke-opacity:1"
       d="m 0,0 h 338.66666 v 1.3229167 l -1.32291,1.3229167 -1.32292,-1.3229167 -1.32292,1.3229167 -1.32291,-1.3229167 -1.32292,1.3229167 -1.32292,-1.3229167 -1.32291,1.3229167 -1.32292,-1.3229167 -1.32292,1.3229167 -1.32291,-1.3229167 -1.32292,1.3229167 -1.32292,-1.3229167 -1.32291,1.3229167 -1.32292,-1.3229167 -1.32292,1.3229167 -1.32291,-1.3229167 -1.32292,1.3229167 -1.32292,-1.3229167 -1.32291,1.3229167 -1.32292,-1.3229167 -1.32292,1.3229167 -1.32291,-1.3229167 -1.32292,1.3229167 -1.32292,-1.3229167 -1.32291,1.3229167 -1.32292,-1.3229167 -1.32292,1.3229167 -1.32291,-1.3229167 -1.32292,1.3229167 -1.32292,-1.3229167 -1.32291,1.3229167 -1.32292,-1.3229167 -1.32292,1.3229167 -1.32291,-1.3229167 -1.32292,1.3229167 -1.32292,-1.3229167 -1.32291,1.3229167 -1.32292,-1.3229167 -1.32292,1.3229167 -1.32291,-1.3229167 -1.32292,1.3229167 -1.32292,-1.3229167 -1.32291,1.3229167 -1.32292,-1.3229167 -1.32291,1.3229167 -1.32292,-1.3229167 -1.32292,1.3229167 -1.32291,-1.3229167 -1.32292,1.3229167 -1.32292,-1.3229167 -1.32291,1.3229167 -1.32292,-1.3229167 -1.32292,1.3229167 -1.32291,-1.3229167 -1.32292,1.3229167 -1.32292,-1.3229167 -1.32291,1.3229167 -1.32292,-1.3229167 -1.32292,1.3229167 -1.32291,-1.3229167 -1.32292,1.3229167 -1.32292,-1.3229167 -1.32291,1.3229167 L 254,1.3229167 l -1.32292,1.3229167 -1.32291,-1.3229167 -1.32292,1.3229167 -1.32292,-1.3229167 -1.32291,1.3229167 -1.32292,-1.3229167 -1.32292,1.3229167 -1.32291,-1.3229167 -1.32292,1.3229167 -1.32292,-1.3229167 -1.32291,1.3229167 -1.32292,-1.3229167 -1.32292,1.3229167 -1.32291,-1.3229167 -1.32292,1.3229167 -1.32292,-1.3229167 -1.32291,1.3229167 -1.32292,-1.3229167 -1.32292,1.3229167 -1.32291,-1.3229167 -1.32292,1.3229167 -1.32292,-1.3229167 -1.32291,1.3229167 -1.32292,-1.3229167 -1.32292,1.3229167 -1.32291,-1.3229167 -1.32292,1.3229167 -1.32292,-1.3229167 -1.32291,1.3229167 -1.32292,-1.3229167 -1.32292,1.3229167 -1.32292,-1.3229167 -1.32291,1.3229167 -1.32292,-1.3229167 -1.32292,1.3229167 -1.32291,-1.3229167 -1.32292,1.3229167 -1.32292,-1.3229167 -1.32291,1.3229167 -1.32292,-1.3229167 -1.32292,1.3229167 -1.32291,-1.3229167 -1.32292,1.3229167 -1.32292,-1.3229167 -1.32291,1.3229167 -1.32292,-1.3229167 -1.32292,1.3229167 -1.32291,-1.3229167 -1.32292,1.3229167 -1.32292,-1.3229167 -1.32291,1.3229167 -1.32292,-1.3229167 -1.32292,1.3229167 -1.32291,-1.3229167 -1.32292,1.3229167 -1.32292,-1.3229167 -1.32291,1.3229167 -1.32292,-1.3229167 -1.32292,1.3229167 -1.32291,-1.3229167 -1.32292,1.3229167 -1.32292,-1.3229167 -1.32291,1.3229167 -1.32292,-1.3229167 -1.32291,1.3229167 -1.32292,-1.3229167 -1.32292,1.3229167 -1.32291,-1.3229167 -1.32292,1.3229167 -1.32292,-1.3229167 -1.32291,1.3229167 -1.32292,-1.3229167 -1.32292,1.3229167 -1.32291,-1.3229167 -1.32292,1.3229167 -1.32292,-1.3229167 -1.32291,1.3229167 -1.32292,-1.3229167 -1.32292,1.3229167 -1.32291,-1.3229167 -1.32292,1.3229167 -1.32292,-1.3229167 -1.32291,1.3229167 -1.32292,-1.3229167 -1.32292,1.3229167 -1.32291,-1.3229167 -1.32292,1.3229167 -1.32292,-1.3229167 -1.32291,1.3229167 -1.32292,-1.3229167 -1.32292,1.3229167 -1.32291,-1.3229167 -1.32292,1.3229167 -1.32292,-1.3229167 -1.32291,1.3229167 L 127,1.3229167 l -1.32292,1.3229167 -1.32291,-1.3229167 -1.32292,1.3229167 -1.32292,-1.3229167 -1.32291,1.3229167 -1.32292,-1.3229167 -1.32292,1.3229167 -1.32291,-1.3229167 -1.32292,1.3229167 -1.32292,-1.3229167 -1.32291,1.3229167 -1.32292,-1.3229167 -1.32291,1.3229167 -1.32292,-1.3229167 -1.32292,1.3229167 -1.32291,-1.3229167 -1.32292,1.3229167 L 103.1875,1.3229167 101.86459,2.6458334 100.54167,1.3229167 99.218752,2.6458334 97.895835,1.3229167 96.572919,2.6458334 95.250003,1.3229167 93.927085,2.6458334 92.604169,1.3229167 91.281252,2.6458334 89.958335,1.3229167 88.635419,2.6458334 87.312502,1.3229167 85.989585,2.6458334 84.666669,1.3229167 83.343752,2.6458334 82.020835,1.3229167 80.697919,2.6458334 79.375002,1.3229167 78.052085,2.6458334 76.729168,1.3229167 75.406252,2.6458334 74.083336,1.3229167 72.760419,2.6458334 71.437502,1.3229167 70.114586,2.6458334 68.791669,1.3229167 67.468752,2.6458334 66.145835,1.3229167 64.822919,2.6458334 63.500002,1.3229167 62.177085,2.6458334 60.854168,1.3229167 59.531252,2.6458334 58.208335,1.3229167 56.885418,2.6458334 55.562501,1.3229167 54.239585,2.6458334 52.916669,1.3229167 51.593752,2.6458334 50.270835,1.3229167 48.947918,2.6458334 47.625002,1.3229167 46.302085,2.6458334 44.979168,1.3229167 43.656252,2.6458334 42.333334,1.3229167 41.010417,2.6458334 39.6875,1.3229167 38.364584,2.6458334 37.041667,1.3229167 35.71875,2.6458334 34.395833,1.3229167 33.072917,2.6458334 31.750001,1.3229167 30.427084,2.6458334 29.104167,1.3229167 27.781251,2.6458334 26.458334,1.3229167 25.135417,2.6458334 23.8125,1.3229167 22.489584,2.6458334 21.166667,1.3229167 19.84375,2.6458334 18.520833,1.3229167 17.197917,2.6458334 15.875,1.3229167 14.552083,2.6458334 13.229166,1.3229167 11.90625,2.6458334 10.583334,1.3229167 9.2604169,2.6458334 7.9375002,1.3229167 6.6145836,2.6458334 5.2916669,1.3229167 3.96875,2.6458334 2.6458333,1.3229167 1.3229167,2.6458334 0,1.3229167 Z" />
  </g>
</svg>
