<?xml version="1.0" encoding="UTF-8" standalone="no"?>
<!-- Created with Inkscape (http://www.inkscape.org/) -->

<svg
   width="338.66666mm"
   height="2.6458335mm"
   viewBox="0 0 338.66666 2.6458335"
   version="1.1"
   xmlns="http://www.w3.org/2000/svg"
   xmlns:svg="http://www.w3.org/2000/svg">
   <path
      id="path3318"
      style="fill:#ff0000;stroke:none;stroke-width:0.264583px;stroke-linecap:butt;stroke-linejoin:miter;stroke-opacity:1"
      d="M 0,2.6458334 H 338.66666 V 1.3229167 L 337.34375,0 336.02083,1.3229167 334.69791,0 333.375,1.3229167 332.05208,0 330.72916,1.3229167 329.40625,0 328.08333,1.3229167 326.76041,0 325.4375,1.3229167 324.11458,0 322.79166,1.3229167 321.46875,0 320.14583,1.3229167 318.82291,0 317.5,1.3229167 316.17708,0 314.85416,1.3229167 313.53125,0 312.20833,1.3229167 310.88541,0 309.5625,1.3229167 308.23958,0 306.91666,1.3229167 305.59375,0 304.27083,1.3229167 302.94791,0 301.625,1.3229167 300.30208,0 298.97916,1.3229167 297.65625,0 296.33333,1.3229167 295.01041,0 293.6875,1.3229167 292.36458,0 291.04166,1.3229167 289.71875,0 288.39583,1.3229167 287.07291,0 285.75,1.3229167 284.42708,0 283.10416,1.3229167 281.78125,0 280.45833,1.3229167 279.13542,0 277.8125,1.3229167 276.48958,0 275.16667,1.3229167 273.84375,0 272.52083,1.3229167 271.19792,0 269.875,1.3229167 268.55208,0 267.22917,1.3229167 265.90625,0 264.58333,1.3229167 263.26042,0 261.9375,1.3229167 260.61458,0 259.29167,1.3229167 257.96875,0 256.64583,1.3229167 255.32292,0 254,1.3229167 252.67708,0 251.35417,1.3229167 250.03125,0 248.70833,1.3229167 247.38542,0 246.0625,1.3229167 244.73958,0 243.41667,1.3229167 242.09375,0 240.77083,1.3229167 239.44792,0 238.125,1.3229167 236.80208,0 235.47917,1.3229167 234.15625,0 232.83333,1.3229167 231.51042,0 230.1875,1.3229167 228.86458,0 227.54167,1.3229167 226.21875,0 224.89583,1.3229167 223.57292,0 222.25,1.3229167 220.92708,0 219.60417,1.3229167 218.28125,0 216.95833,1.3229167 215.63542,0 214.3125,1.3229167 212.98958,0 211.66666,1.3229167 210.34375,0 209.02083,1.3229167 207.69791,0 206.375,1.3229167 205.05208,0 203.72916,1.3229167 202.40625,0 201.08333,1.3229167 199.76041,0 198.4375,1.3229167 197.11458,0 195.79166,1.3229167 194.46875,0 193.14583,1.3229167 191.82291,0 190.5,1.3229167 189.17708,0 187.85416,1.3229167 186.53125,0 185.20833,1.3229167 183.88541,0 182.5625,1.3229167 181.23958,0 179.91666,1.3229167 178.59375,0 177.27083,1.3229167 175.94791,0 174.625,1.3229167 173.30208,0 171.97916,1.3229167 170.65625,0 169.33333,1.3229167 168.01042,0 166.6875,1.3229167 165.36458,0 164.04167,1.3229167 162.71875,0 161.39583,1.3229167 160.07292,0 158.75,1.3229167 157.42708,0 156.10417,1.3229167 154.78125,0 153.45833,1.3229167 152.13542,0 150.8125,1.3229167 149.48958,0 148.16667,1.3229167 146.84375,0 145.52083,1.3229167 144.19792,0 142.875,1.3229167 141.55208,0 140.22917,1.3229167 138.90625,0 137.58333,1.3229167 136.26042,0 134.9375,1.3229167 133.61458,0 132.29167,1.3229167 130.96875,0 129.64583,1.3229167 128.32292,0 127,1.3229167 125.67708,0 124.35417,1.3229167 123.03125,0 121.70833,1.3229167 120.38542,0 119.0625,1.3229167 117.73958,0 116.41667,1.3229167 115.09375,0 113.77083,1.3229167 112.44792,0 111.125,1.3229167 109.80209,0 108.47917,1.3229167 107.15625,0 105.83334,1.3229167 104.51042,0 103.1875,1.3229167 101.86459,0 100.54167,1.3229167 99.218752,0 97.895835,1.3229167 96.572919,0 95.250003,1.3229167 93.927085,0 92.604169,1.3229167 91.281252,0 89.958335,1.3229167 88.635419,0 87.312502,1.3229167 85.989585,0 84.666669,1.3229167 83.343752,0 82.020835,1.3229167 80.697919,0 79.375002,1.3229167 78.052085,0 76.729168,1.3229167 75.406252,0 74.083336,1.3229167 72.760419,0 71.437502,1.3229167 70.114586,0 68.791669,1.3229167 67.468752,0 66.145835,1.3229167 64.822919,0 63.500002,1.3229167 62.177085,0 60.854168,1.3229167 59.531252,0 58.208335,1.3229167 56.885418,0 55.562501,1.3229167 54.239585,0 52.916669,1.3229167 51.593752,0 50.270835,1.3229167 48.947918,0 47.625002,1.3229167 46.302085,0 44.979168,1.3229167 43.656252,0 42.333334,1.3229167 41.010417,0 39.6875,1.3229167 38.364584,0 37.041667,1.3229167 35.71875,0 34.395833,1.3229167 33.072917,0 31.750001,1.3229167 30.427084,0 29.104167,1.3229167 27.781251,0 26.458334,1.3229167 25.135417,0 23.8125,1.3229167 22.489584,0 21.166667,1.3229167 19.84375,0 18.520833,1.3229167 17.197917,0 15.875,1.3229167 14.552083,0 13.229166,1.3229167 11.90625,0 10.583334,1.3229167 9.2604169,0 7.9375002,1.3229167 6.6145836,0 5.2916669,1.3229167 3.96875,0 2.6458333,1.3229167 1.3229167,0 0,1.3229167 Z" />
</svg>
